<svg version="1.1" id="Layer_1" xmlns="http://www.w3.org/2000/svg" xmlns:xlink="http://www.w3.org/1999/xlink" x="0px" y="0px"
	 width="100%" viewBox="0 0 682 544" enable-background="new 0 0 682 544" xml:space="preserve">
<path fill="#EEEEEE" opacity="1.000000" stroke="none" 
	d="
M683.000000,30.000004 
	C683.000000,201.624496 683.000000,373.248993 683.000000,544.936768 
	C455.764709,544.936768 228.529404,544.936768 1.000000,544.936768 
	C1.000000,370.640961 1.000000,196.281723 1.338394,21.409187 
	C2.824141,19.519526 3.790860,17.921692 5.154037,16.809999 
	C8.692743,13.924130 12.033107,10.137287 16.139469,8.764423 
	C21.836271,6.859833 28.160103,6.109264 34.216255,6.105500 
	C237.337814,5.979269 440.459473,5.986104 643.581055,6.075991 
	C649.331299,6.078535 655.075195,7.260276 660.832153,7.780238 
	C673.021973,8.881216 678.779480,16.428030 681.074219,27.628393 
	C681.255493,28.513308 682.336914,29.213802 683.000000,30.000004 
M11.736932,15.588283 
	C11.498908,16.399994 11.260885,17.211706 10.324669,17.985891 
	C9.211924,18.988060 8.099178,19.990229 6.337535,21.084545 
	C5.920699,21.756611 5.503864,22.428675 5.057489,23.945616 
	C4.707319,28.733259 4.052763,33.520798 4.051106,38.308563 
	C3.997561,193.053177 3.990668,347.797791 4.052957,502.542389 
	C4.056225,510.661407 4.727020,518.780151 5.104743,527.560791 
	C5.731919,528.043152 6.359095,528.525452 7.280066,529.615540 
	C11.215128,534.260254 14.819589,539.419617 22.052025,539.628174 
	C22.704132,539.734802 23.356239,539.841370 24.944506,539.960815 
	C82.070259,539.971436 139.196014,539.993652 196.321762,539.990479 
	C350.211609,539.982117 504.101440,539.962891 658.319092,540.415466 
	C658.888306,539.961548 659.457520,539.507629 660.833862,539.018738 
	C667.845276,538.918091 671.347473,533.846802 675.662537,528.915527 
	C676.079346,528.243469 676.496216,527.571472 676.942566,526.054504 
	C677.292603,521.266846 677.946960,516.479370 677.948608,511.691620 
	C678.002136,356.946930 678.008972,202.202255 677.946716,47.457592 
	C677.943420,39.338566 677.272949,31.219812 676.895325,22.439146 
	C676.268005,21.956903 675.640747,21.474661 674.726868,20.396978 
	C673.152100,18.596735 671.577271,16.796494 669.919189,14.273050 
	C666.281067,12.846581 662.643005,11.420112 658.070251,9.989367 
	C446.378296,9.990791 234.686325,9.992216 22.178391,9.989409 
	C18.253475,10.577999 13.944887,10.386497 11.736932,15.588283 
z"/>
<path fill="#F4F4F4" opacity="1.000000" stroke="none" 
	d="
M683.000000,29.531345 
	C682.336914,29.213802 681.255493,28.513308 681.074219,27.628393 
	C678.779480,16.428030 673.021973,8.881216 660.832153,7.780238 
	C655.075195,7.260276 649.331299,6.078535 643.581055,6.075991 
	C440.459473,5.986104 237.337814,5.979269 34.216255,6.105500 
	C28.160103,6.109264 21.836271,6.859833 16.139469,8.764423 
	C12.033107,10.137287 8.692743,13.924130 5.154037,16.809999 
	C3.790860,17.921692 2.824141,19.519526 1.338394,20.947933 
	C1.000000,14.337325 1.000000,7.674650 1.000000,1.039696 
	C228.333344,1.039696 455.666687,1.039696 683.000000,1.039696 
	C683.000000,10.407156 683.000000,19.734921 683.000000,29.531345 
z"/>
<path fill="#C5C5C5" opacity="1.000000" stroke="none" 
	d="
M5.087049,526.899048 
	C4.727020,518.780151 4.056225,510.661407 4.052957,502.542389 
	C3.990668,347.797791 3.997561,193.053177 4.051106,38.308563 
	C4.052763,33.520798 4.707319,28.733259 5.383232,23.454395 
	C6.134794,22.306250 6.560613,21.649324 6.986432,20.992399 
	C8.099178,19.990229 9.211924,18.988060 10.664320,17.994974 
	C11.003972,18.004057 10.986244,17.986961 10.953163,18.356636 
	C10.254529,20.847832 9.588976,22.969355 8.639883,25.333565 
	C7.892740,29.335016 7.025274,33.093609 7.023672,36.852566 
	C6.956007,195.641098 6.965444,354.429657 6.967405,513.218201 
	C6.967430,515.217529 6.645149,517.301147 7.101997,519.193604 
	C7.603897,521.272705 8.834699,523.175781 9.911617,525.449890 
	C11.684116,527.872131 13.292907,530.000061 14.962275,532.452515 
	C15.739999,533.116211 16.457146,533.455261 17.456383,533.859680 
	C18.113840,534.014832 18.489206,534.104736 18.916254,534.467041 
	C19.641878,534.879333 20.315817,535.019287 21.298813,535.171936 
	C22.019682,535.204041 22.431496,535.223389 22.943060,535.558594 
	C24.444231,535.743835 25.845650,535.613281 27.694447,535.430176 
	C28.974207,535.359375 29.806589,535.324951 30.638973,535.324951 
	C235.348572,535.326294 440.058167,535.329224 644.767761,535.339722 
	C648.096558,535.339905 651.425415,535.431946 654.910522,535.788208 
	C656.136108,536.320862 657.263184,536.888611 658.265869,536.719299 
	C668.814026,534.939209 675.007690,527.471863 675.010864,516.438293 
	C675.036560,426.287231 675.034363,336.136169 675.035706,245.985092 
	C675.036743,175.497299 675.056396,105.009460 674.943481,34.521839 
	C674.938354,31.348785 673.703918,28.177700 672.789551,24.754475 
	C671.277039,21.342495 670.017090,18.181734 669.068542,15.019996 
	C669.587402,15.011433 669.794922,15.003846 670.002441,14.996254 
	C671.577271,16.796494 673.152100,18.596735 674.900879,21.014286 
	C675.687683,22.121372 676.300354,22.611153 676.913086,23.100931 
	C677.272949,31.219812 677.943420,39.338566 677.946716,47.457592 
	C678.008972,202.202255 678.002136,356.946930 677.948608,511.691620 
	C677.946960,516.479370 677.292603,521.266846 676.616821,526.545715 
	C675.865234,527.693848 675.439453,528.350830 675.013672,529.007812 
	C671.347473,533.846802 667.845276,538.918091 660.131714,539.032593 
	C658.950195,539.346924 658.470703,539.647400 657.991272,539.947937 
	C504.101440,539.962891 350.211609,539.982117 196.321762,539.990479 
	C139.196014,539.993652 82.070259,539.971436 24.299984,539.717529 
	C23.094719,539.334045 22.533974,539.193848 21.973228,539.053711 
	C14.819589,539.419617 11.215128,534.260254 7.102535,528.992065 
	C6.312352,527.878723 5.699700,527.388916 5.087049,526.899048 
z"/>
<path fill="#D5D5D5" opacity="1.000000" stroke="none" 
	d="
M22.994366,9.993642 
	C234.686325,9.992216 446.378296,9.990791 658.532898,10.233322 
	C658.995544,10.477277 658.987488,10.960784 658.520203,10.970886 
	C560.457031,10.987207 462.861176,11.001895 365.265289,10.997432 
	C251.181473,10.992215 137.097672,10.970296 23.009357,10.715120 
	C23.004852,10.474617 22.994366,9.993642 22.994366,9.993642 
z"/>
<path fill="#E0E0E0" opacity="1.000000" stroke="none" 
	d="
M22.586378,9.991526 
	C22.994366,9.993642 23.004852,10.474617 22.684986,10.872356 
	C19.324265,12.520395 16.283411,13.770695 12.931274,15.020080 
	C12.412605,15.011617 12.205219,15.004067 11.997834,14.996518 
	C13.944887,10.386497 18.253475,10.577999 22.586378,9.991526 
z"/>
<path fill="#E0E0E0" opacity="1.000000" stroke="none" 
	d="
M658.987488,10.960782 
	C658.987488,10.960784 658.995544,10.477277 659.000244,10.235460 
	C662.643005,11.420112 666.281067,12.846581 669.960815,14.634655 
	C669.794922,15.003846 669.587402,15.011433 668.732666,14.991050 
	C665.052795,13.628981 662.020142,12.294880 658.987488,10.960782 
z"/>
<path fill="#C5C5C5" opacity="1.000000" stroke="none" 
	d="
M11.867383,15.292400 
	C12.205219,15.004067 12.412605,15.011617 12.853155,15.360187 
	C12.386293,16.463125 11.686269,17.225042 10.986244,17.986961 
	C10.986244,17.986961 11.003972,18.004057 11.013417,18.013737 
	C11.260885,17.211706 11.498908,16.399994 11.867383,15.292400 
z"/>
<path fill="#E0E0E0" opacity="1.000000" stroke="none" 
	d="
M676.904175,22.770039 
	C676.300354,22.611153 675.687683,22.121372 675.044189,21.312004 
	C675.640747,21.474661 676.268005,21.956903 676.904175,22.770039 
z"/>
<path fill="#E0E0E0" opacity="1.000000" stroke="none" 
	d="
M5.095896,527.229919 
	C5.699700,527.388916 6.312352,527.878723 6.955637,528.688232 
	C6.359095,528.525452 5.731919,528.043152 5.095896,527.229919 
z"/>
<path fill="#E0E0E0" opacity="1.000000" stroke="none" 
	d="
M675.338135,528.961670 
	C675.439453,528.350830 675.865234,527.693848 676.602051,526.968140 
	C676.496216,527.571472 676.079346,528.243469 675.338135,528.961670 
z"/>
<path fill="#E0E0E0" opacity="1.000000" stroke="none" 
	d="
M6.661983,21.038471 
	C6.560613,21.649324 6.134794,22.306250 5.398002,23.031958 
	C5.503864,22.428675 5.920699,21.756611 6.661983,21.038471 
z"/>
<path fill="#E0E0E0" opacity="1.000000" stroke="none" 
	d="
M22.012627,539.340942 
	C22.533974,539.193848 23.094719,539.334045 23.831905,539.711060 
	C23.356239,539.841370 22.704132,539.734802 22.012627,539.340942 
z"/>
<path fill="#E0E0E0" opacity="1.000000" stroke="none" 
	d="
M658.155151,540.181702 
	C658.470703,539.647400 658.950195,539.346924 659.728149,539.050049 
	C659.457520,539.507629 658.888306,539.961548 658.155151,540.181702 
z"/>
<path fill="#FFFFFF" opacity="1.000000" stroke="none" 
	d="
M10.953163,18.356636 
	C11.686269,17.225042 12.386293,16.463125 13.164438,15.361100 
	C16.283411,13.770695 19.324265,12.520395 22.689489,11.112860 
	C137.097672,10.970296 251.181473,10.992215 365.265289,10.997432 
	C462.861176,11.001895 560.457031,10.987207 658.520203,10.970884 
	C662.020142,12.294880 665.052795,13.628981 668.421265,14.992027 
	C670.017090,18.181734 671.277039,21.342495 672.782593,25.222586 
	C672.999512,100.605713 672.958008,175.269516 672.945679,249.933319 
	C672.931213,337.096863 673.006287,424.260559 672.770325,511.423462 
	C672.757263,516.256531 670.257935,521.083008 668.580994,526.010742 
	C664.824036,527.760498 661.401917,529.411926 657.513550,531.027588 
	C447.536560,530.988647 238.025711,530.985291 28.514864,530.985779 
	C27.016899,530.985779 25.518936,531.037476 23.664642,530.946777 
	C18.029552,530.070007 14.052438,527.256897 10.948774,522.622192 
	C10.298244,518.486572 9.137754,514.746338 9.135596,511.005432 
	C9.044938,353.865936 9.059003,196.726410 9.052154,39.586884 
	C9.051943,34.754883 8.968214,29.922880 8.923422,25.090878 
	C9.588976,22.969355 10.254529,20.847832 10.953163,18.356636 
M274.503174,352.998474 
	C270.672272,352.998627 266.841187,352.973053 263.010529,353.004364 
	C255.725311,353.063965 253.028488,355.696594 253.010498,362.928925 
	C252.972366,378.252350 252.974045,393.576019 253.009460,408.899445 
	C253.026855,416.431152 255.646179,418.990814 263.339233,418.993134 
	C315.139404,419.008667 366.939545,419.009583 418.739716,418.991974 
	C426.385345,418.989349 428.973480,416.411499 428.991028,408.820801 
	C429.025330,393.997040 429.008118,379.173157 428.998962,364.349304 
	C428.993256,355.154327 426.795013,353.001160 417.411102,353.000336 
	C370.108063,352.996277 322.805023,352.998474 274.503174,352.998474 
M427.500000,317.003052 
	C452.818451,317.002960 478.136963,317.019745 503.455383,316.992798 
	C511.354675,316.984406 513.991150,314.341278 513.998169,306.559998 
	C514.012878,290.236237 514.010803,273.912506 513.999023,257.588745 
	C513.993286,249.678604 511.428131,247.009567 503.604126,247.008392 
	C395.167755,246.992020 286.731415,246.991760 178.295044,247.009476 
	C170.717789,247.010712 168.013214,249.738388 168.003464,257.189880 
	C167.982971,272.847321 167.996750,288.504852 167.997101,304.162323 
	C167.997345,315.149261 169.819824,317.002411 180.644287,317.002533 
	C262.596191,317.003479 344.548096,317.003052 427.500000,317.003052 
M318.265991,186.195084 
	C318.265991,172.425186 318.265991,158.655304 318.265991,144.835281 
	C314.921448,144.835281 312.138885,144.835281 308.827942,144.835281 
	C308.827942,149.859238 308.827942,154.698227 308.827942,158.835587 
	C305.147949,158.016571 301.828674,156.588013 298.552673,156.681152 
	C289.583282,156.936142 284.456512,164.896072 285.337433,175.952469 
	C286.517761,190.766708 298.695526,195.891388 308.985077,188.206848 
	C310.863953,193.253937 314.875580,190.204041 318.098267,190.916016 
	C318.163940,189.427444 318.214966,188.271530 318.265991,186.195084 
M258.602112,191.068848 
	C259.914459,191.291672 261.218842,191.598099 262.540436,191.723816 
	C271.395203,192.566055 279.417236,186.390366 280.877563,177.646103 
	C282.461609,168.161102 277.410278,159.337967 269.134949,157.135345 
	C259.355072,154.532257 249.990402,158.984390 247.259323,167.777740 
	C244.768829,175.796448 246.550827,187.481720 258.602112,191.068848 
M358.100128,167.706879 
	C357.455017,166.370377 356.961029,164.931885 356.139557,163.714371 
	C351.774048,157.244247 343.279388,154.784348 335.265747,157.577698 
	C328.033020,160.098816 323.627472,167.196793 324.309631,175.229523 
	C325.091736,184.439087 329.496613,189.656219 337.855865,191.273636 
	C351.914093,193.993729 361.555695,183.260178 358.100128,167.706879 
M436.675781,179.671127 
	C436.606018,181.063568 436.536224,182.456024 436.466461,183.848450 
	C433.622650,183.671417 429.271362,184.586563 428.208313,183.119324 
	C424.534668,178.048874 420.617889,180.326050 416.279724,181.158997 
	C417.779907,186.763199 421.304047,189.983536 426.551208,191.007584 
	C433.203186,192.305786 439.953491,192.815750 445.109131,187.116852 
	C449.990204,181.721436 448.338501,174.412354 441.619141,171.657791 
	C438.421265,170.346863 434.925629,169.780930 431.624695,168.695587 
	C429.749634,168.079056 427.995392,167.095047 426.186737,166.276520 
	C426.297333,165.574768 426.407959,164.873001 426.518585,164.171249 
	C429.416748,164.171249 433.637024,162.955368 434.964996,164.399384 
	C438.936584,168.717957 442.601593,166.384964 446.626984,165.658142 
	C443.107147,156.502518 427.382721,153.130341 420.507385,159.806076 
	C415.460693,164.706207 416.595520,172.794464 423.053680,175.514099 
	C427.149841,177.239090 431.625488,178.063110 436.675781,179.671127 
M234.486053,144.626343 
	C226.737686,144.626343 218.989319,144.626343 211.251144,144.626343 
	C211.251144,147.701614 211.251144,150.133423 211.251144,153.100266 
	C215.829910,153.100266 220.207153,153.100266 224.956116,153.100266 
	C224.956116,166.028275 224.956116,178.419098 224.956116,190.769852 
	C228.290207,190.769852 231.220520,190.769852 234.570175,190.769852 
	C234.570175,178.141083 234.570175,165.748611 234.570175,152.932220 
	C239.235779,152.932220 243.489136,152.932220 247.733246,152.932220 
	C247.733246,149.954178 247.733246,147.416061 247.733246,144.626373 
	C243.434662,144.626373 239.456863,144.626373 234.486053,144.626343 
M470.076111,160.552551 
	C470.937469,155.307800 466.452545,157.911789 464.059265,156.548431 
	C464.059265,153.226639 464.059265,149.663040 464.059265,145.420929 
	C459.021942,148.265610 452.910034,149.092941 454.865204,156.639313 
	C453.372742,156.970428 452.150696,157.241547 451.026886,157.490891 
	C450.615295,161.283600 449.293732,165.165421 454.923920,165.626984 
	C454.923920,172.136032 454.529572,178.330383 455.126373,184.427704 
	C455.351471,186.727280 457.483978,190.122040 459.427887,190.690964 
	C462.922668,191.713806 466.931702,190.979767 471.167267,190.979767 
	C470.608063,187.611710 470.240509,185.398010 469.872955,183.184326 
	C469.440796,183.574066 469.008606,183.963821 468.576447,184.353577 
	C467.089142,183.098068 464.461395,181.959152 464.319000,180.566147 
	C463.801025,175.498947 464.114532,170.346756 464.114532,165.422760 
	C466.479553,164.124481 470.938660,166.703293 470.076111,160.552551 
M383.164581,175.495392 
	C383.164581,180.600967 383.164581,185.706528 383.164581,190.682755 
	C386.719574,190.682755 389.625854,190.682755 392.566284,190.682755 
	C392.566284,175.254013 392.566284,160.174423 392.566284,144.865814 
	C389.405090,144.865814 386.483276,144.865814 383.164581,144.865814 
	C383.164581,154.919998 383.164581,164.708679 383.164581,175.495392 
M410.804565,165.581268 
	C410.804565,162.827911 410.804565,160.074570 410.804565,157.336670 
	C407.255066,157.336670 404.481079,157.336670 401.451599,157.336670 
	C401.451599,168.619949 401.451599,179.661362 401.451599,190.729797 
	C404.646393,190.729797 407.549225,190.729797 410.804565,190.729797 
	C410.804565,182.476700 410.804565,174.519531 410.804565,165.581268 
M408.098206,153.269012 
	C414.045807,151.976791 409.258270,147.720856 410.915253,145.001099 
	C407.353455,145.001099 404.358093,145.001099 401.299561,145.001099 
	C401.299561,147.854462 401.299561,150.301758 401.299561,153.270126 
	C403.370605,153.270126 405.309967,153.270126 408.098206,153.269012 
z"/>
<path fill="#636363" opacity="1.000000" stroke="none" 
	d="
M657.979736,531.063354 
	C661.401917,529.411926 664.824036,527.760498 668.830200,526.216980 
	C669.168884,527.172791 669.160828,528.221863 668.640015,528.836243 
	C665.021973,533.104065 660.213074,534.998474 654.754211,535.481140 
	C651.425415,535.431946 648.096558,535.339905 644.767761,535.339722 
	C440.058167,535.329224 235.348572,535.326294 30.638973,535.324951 
	C29.806589,535.324951 28.974207,535.359375 27.273806,535.256592 
	C25.218294,535.171204 24.030800,535.207031 22.843307,535.242798 
	C22.431496,535.223389 22.019682,535.204041 21.151783,534.875366 
	C20.085321,534.442322 19.474947,534.318420 18.864571,534.194580 
	C18.489206,534.104736 18.113840,534.014832 17.380093,533.549561 
	C16.315041,532.825439 15.608372,532.476746 14.901700,532.127991 
	C13.292907,530.000061 11.684116,527.872131 10.029443,525.149414 
	C10.315405,524.042114 10.647250,523.529724 10.979092,523.017273 
	C14.052438,527.256897 18.029552,530.070007 23.734974,531.343018 
	C27.020416,532.240906 29.879112,532.959534 32.737988,532.960266 
	C238.181473,533.012756 443.624969,533.008240 649.068481,533.006287 
	C651.234436,533.006287 653.423584,533.155884 655.555115,532.877686 
	C656.427429,532.763855 657.175293,531.696777 657.979736,531.063354 
z"/>
<path fill="#979797" opacity="1.000000" stroke="none" 
	d="
M654.910522,535.788208 
	C660.213074,534.998474 665.021973,533.104065 668.640015,528.836243 
	C669.160828,528.221863 669.168884,527.172791 669.165039,526.118774 
	C670.257935,521.083008 672.757263,516.256531 672.770325,511.423462 
	C673.006287,424.260559 672.931213,337.096863 672.945679,249.933319 
	C672.958008,175.269516 672.999512,100.605713 673.035156,25.473804 
	C673.703918,28.177700 674.938354,31.348785 674.943481,34.521839 
	C675.056396,105.009460 675.036743,175.497299 675.035706,245.985092 
	C675.034363,336.136169 675.036560,426.287231 675.010864,516.438293 
	C675.007690,527.471863 668.814026,534.939209 658.265869,536.719299 
	C657.263184,536.888611 656.136108,536.320862 654.910522,535.788208 
z"/>
<path fill="#979797" opacity="1.000000" stroke="none" 
	d="
M10.948778,522.622192 
	C10.647250,523.529724 10.315405,524.042114 9.865734,524.855103 
	C8.834699,523.175781 7.603897,521.272705 7.101997,519.193604 
	C6.645149,517.301147 6.967430,515.217529 6.967405,513.218201 
	C6.965444,354.429657 6.956007,195.641098 7.023672,36.852566 
	C7.025274,33.093609 7.892740,29.335016 8.639883,25.333565 
	C8.968214,29.922880 9.051943,34.754883 9.052154,39.586884 
	C9.059003,196.726410 9.044938,353.865936 9.135596,511.005432 
	C9.137754,514.746338 10.298244,518.486572 10.948778,522.622192 
z"/>
<path fill="#979797" opacity="1.000000" stroke="none" 
	d="
M22.943060,535.558594 
	C24.030800,535.207031 25.218294,535.171204 26.826427,535.309082 
	C25.845650,535.613281 24.444231,535.743835 22.943060,535.558594 
z"/>
<path fill="#979797" opacity="1.000000" stroke="none" 
	d="
M14.962276,532.452515 
	C15.608372,532.476746 16.315041,532.825439 17.098001,533.484253 
	C16.457146,533.455261 15.739999,533.116211 14.962276,532.452515 
z"/>
<path fill="#979797" opacity="1.000000" stroke="none" 
	d="
M18.916256,534.467041 
	C19.474947,534.318420 20.085321,534.442322 20.842724,534.862671 
	C20.315817,535.019287 19.641878,534.879333 18.916256,534.467041 
z"/>
<path fill="#51ACE8" opacity="1.000000" stroke="none" 
	d="
M275.002563,352.998474 
	C322.805023,352.998474 370.108063,352.996277 417.411102,353.000336 
	C426.795013,353.001160 428.993256,355.154327 428.998962,364.349304 
	C429.008118,379.173157 429.025330,393.997040 428.991028,408.820801 
	C428.973480,416.411499 426.385345,418.989349 418.739716,418.991974 
	C366.939545,419.009583 315.139404,419.008667 263.339233,418.993134 
	C255.646179,418.990814 253.026855,416.431152 253.009460,408.899445 
	C252.974045,393.576019 252.972366,378.252350 253.010498,362.928925 
	C253.028488,355.696594 255.725311,353.063965 263.010529,353.004364 
	C266.841187,352.973053 270.672272,352.998627 275.002563,352.998474 
M301.317902,390.819397 
	C302.945251,392.235352 304.572571,393.651276 306.199921,395.067200 
	C306.602325,394.827698 307.004730,394.588165 307.407104,394.348663 
	C305.678772,389.628265 304.032837,384.873383 302.092682,380.241699 
	C301.901733,379.785919 299.039368,379.716736 298.879730,380.091400 
	C296.861176,384.829132 295.111267,389.681274 293.292786,394.504242 
	C293.637909,394.670959 293.983032,394.837646 294.328156,395.004364 
	C296.383240,393.602509 298.438293,392.200653 301.317902,390.819397 
M326.904480,395.058990 
	C328.819061,394.917542 330.733612,394.776093 332.374451,394.654846 
	C332.374451,388.934967 332.374451,383.576202 332.374451,378.217468 
	C331.985626,378.174133 331.596802,378.130798 331.208008,378.087494 
	C330.683044,379.634979 330.158112,381.182465 329.607758,382.804779 
	C326.191223,382.350159 322.969421,382.670807 322.206726,386.657166 
	C321.543396,390.124237 321.401703,393.770905 326.904480,395.058990 
M316.534332,379.010956 
	C316.294067,380.257660 316.053772,381.504364 315.813507,382.751068 
	C315.532745,382.423645 315.251953,382.096222 314.971191,381.768799 
	C312.784454,383.083191 309.650024,383.919403 308.677612,385.846497 
	C307.705780,387.772583 307.983215,392.088287 309.340790,393.043884 
	C311.751984,394.741028 315.392944,394.691040 319.023590,395.481750 
	C319.023590,392.558289 319.024292,390.919922 319.023468,389.281586 
	C319.022034,386.469940 319.170746,383.645111 318.927368,380.854523 
	C318.852539,379.996887 317.704437,379.232880 316.534332,379.010956 
M359.484711,394.923950 
	C362.335754,395.285126 363.873535,394.279083 363.506561,391.161835 
	C363.313171,389.519043 363.316559,387.851624 363.093323,386.214111 
	C362.576813,382.425323 359.698547,382.510010 357.048462,382.982422 
	C354.816650,383.380310 352.359833,384.296722 355.546387,387.038910 
	C355.659180,387.135956 355.164948,388.024323 354.872406,388.493195 
	C352.099548,392.937408 353.010559,394.522247 359.484711,394.923950 
M377.983704,382.774719 
	C377.983704,386.831055 377.983704,390.887390 377.983704,394.943695 
	C378.590851,394.963165 379.197998,394.982635 379.805145,395.002075 
	C380.398224,393.733032 380.991302,392.463989 381.493317,391.389801 
	C383.597351,392.864960 385.360077,394.100800 387.122803,395.336639 
	C387.403290,394.966370 387.683777,394.596100 387.964264,394.225830 
	C386.581848,392.218536 385.199402,390.211273 383.729218,388.076569 
	C385.086029,386.440735 386.310638,384.964325 387.535217,383.487915 
	C387.353485,383.207550 387.171753,382.927216 386.990021,382.646881 
	C385.098358,383.587982 383.206726,384.529083 381.248108,385.503510 
	C380.811523,383.036835 380.377258,380.583008 379.942963,378.129181 
	C379.473083,378.164246 379.003235,378.199310 378.533356,378.234375 
	C378.350311,379.445190 378.167297,380.655975 377.983704,382.774719 
M375.556763,392.254791 
	C375.130585,390.367401 374.779877,388.458557 374.251923,386.600067 
	C373.896576,385.349243 373.192749,383.100739 372.813110,383.135529 
	C370.710632,383.328064 368.659729,384.084106 366.591156,384.647125 
	C367.084167,386.181732 367.182648,388.085022 368.178040,389.150116 
	C369.233124,390.279022 371.140472,390.611389 372.675598,391.291656 
	C372.553680,391.739532 372.431732,392.187439 372.309814,392.635345 
	C370.388519,392.248932 368.467255,391.862549 366.379913,391.442749 
	C367.910339,395.931610 371.006836,396.345001 375.556763,392.254791 
M351.126404,378.958557 
	C348.144806,378.958557 345.163208,378.958557 342.181610,378.958557 
	C341.961945,379.434082 341.742249,379.909576 341.522552,380.385101 
	C347.855804,380.507111 346.867889,384.623718 346.874268,388.298767 
	C346.878052,390.472870 347.189575,392.646454 347.464722,396.101227 
	C351.427338,390.271790 344.903595,382.363434 354.578430,379.989075 
	C353.304047,379.487152 352.650055,379.229553 351.126404,378.958557 
z"/>
<path fill="#838181" opacity="1.000000" stroke="none" 
	d="
M427.000000,317.003052 
	C344.548096,317.003052 262.596191,317.003479 180.644287,317.002533 
	C169.819824,317.002411 167.997345,315.149261 167.997101,304.162323 
	C167.996750,288.504852 167.982971,272.847321 168.003464,257.189880 
	C168.013214,249.738388 170.717789,247.010712 178.295044,247.009476 
	C286.731415,246.991760 395.167755,246.992020 503.604126,247.008392 
	C511.428131,247.009567 513.993286,249.678604 513.999023,257.588745 
	C514.010803,273.912506 514.012878,290.236237 513.998169,306.559998 
	C513.991150,314.341278 511.354675,316.984406 503.455383,316.992798 
	C478.136963,317.019745 452.818451,317.002960 427.000000,317.003052 
M170.013580,255.087280 
	C170.010071,272.250275 169.992554,289.413269 170.010315,306.576263 
	C170.016968,313.015900 171.901566,314.982666 178.272339,314.983704 
	C286.749298,315.001526 395.226257,315.001434 503.703217,314.984100 
	C510.087036,314.983063 511.980530,313.019684 511.989655,306.600708 
	C512.011902,290.937408 511.997314,275.274017 511.996796,259.610687 
	C511.996460,250.143097 510.862854,249.003693 501.415558,249.003616 
	C394.438293,249.002747 287.460999,249.003021 180.483734,249.003143 
	C179.483948,249.003143 178.483643,249.026428 177.484467,249.002014 
	C173.721863,248.910110 171.004715,250.290573 170.013580,255.087280 
z"/>
<path fill="#393939" opacity="1.000000" stroke="none" 
	d="
M657.513550,531.027588 
	C657.175293,531.696777 656.427429,532.763855 655.555115,532.877686 
	C653.423584,533.155884 651.234436,533.006287 649.068481,533.006287 
	C443.624969,533.008240 238.181473,533.012756 32.737988,532.960266 
	C29.879112,532.959534 27.020416,532.240906 24.091303,531.461182 
	C25.518936,531.037476 27.016899,530.985779 28.514864,530.985779 
	C238.025711,530.985291 447.536560,530.988647 657.513550,531.027588 
z"/>
<path fill="#070707" opacity="1.000000" stroke="none" 
	d="
M318.265991,186.655350 
	C318.214966,188.271530 318.163940,189.427444 318.098267,190.916016 
	C314.875580,190.204041 310.863953,193.253937 308.985046,188.206879 
	C298.695526,195.891388 286.517761,190.766708 285.337433,175.952469 
	C284.456512,164.896072 289.583282,156.936142 298.552673,156.681152 
	C301.828674,156.588013 305.147949,158.016571 308.827942,158.835587 
	C308.827942,154.698227 308.827942,149.859238 308.827942,144.835281 
	C312.138885,144.835281 314.921448,144.835281 318.265991,144.835281 
	C318.265991,158.655304 318.265991,172.425186 318.265991,186.655350 
M297.455383,165.949173 
	C294.038879,170.368164 294.219086,175.303253 296.242889,180.000275 
	C296.999054,181.755264 299.592194,183.753098 301.359650,183.764328 
	C303.362732,183.777054 306.510223,182.110306 307.147003,180.416809 
	C308.355957,177.201477 308.875793,173.327652 308.334351,169.942902 
	C307.419800,164.225525 303.401642,162.757309 297.455383,165.949173 
z"/>
<path fill="#070707" opacity="1.000000" stroke="none" 
	d="
M258.213074,190.979950 
	C246.550827,187.481720 244.768829,175.796448 247.259323,167.777740 
	C249.990402,158.984390 259.355072,154.532257 269.134949,157.135345 
	C277.410278,159.337967 282.461609,168.161102 280.877563,177.646103 
	C279.417236,186.390366 271.395203,192.566055 262.540436,191.723816 
	C261.218842,191.598099 259.914459,191.291672 258.213074,190.979950 
M258.844910,166.361649 
	C257.969147,169.916275 256.274597,173.504883 256.420349,177.017105 
	C256.611969,181.634003 261.518707,185.148407 265.068512,183.511551 
	C267.452057,182.412445 269.968475,179.877106 270.759918,177.442856 
	C272.034790,173.521759 271.814575,169.121689 268.097626,166.069794 
	C265.349335,163.813248 262.378815,163.764603 258.844910,166.361649 
z"/>
<path fill="#070707" opacity="1.000000" stroke="none" 
	d="
M358.206207,168.103638 
	C361.555695,183.260178 351.914093,193.993729 337.855865,191.273636 
	C329.496613,189.656219 325.091736,184.439087 324.309631,175.229523 
	C323.627472,167.196793 328.033020,160.098816 335.265747,157.577698 
	C343.279388,154.784348 351.774048,157.244247 356.139557,163.714371 
	C356.961029,164.931885 357.455017,166.370377 358.206207,168.103638 
M334.030975,175.253326 
	C334.339600,176.527740 334.460602,177.886780 334.990479,179.061356 
	C336.904449,183.303879 341.016449,184.952454 344.717529,183.096252 
	C348.935730,180.980667 350.719910,174.117355 348.365875,169.062088 
	C346.446747,164.940796 342.200531,163.165756 338.574615,165.188095 
	C337.338776,165.877365 336.051422,167.023392 335.506226,168.274002 
	C334.674652,170.181564 334.467896,172.361511 334.030975,175.253326 
z"/>
<path fill="#070707" opacity="1.000000" stroke="none" 
	d="
M436.303345,179.481140 
	C431.625488,178.063110 427.149841,177.239090 423.053680,175.514099 
	C416.595520,172.794464 415.460693,164.706207 420.507385,159.806076 
	C427.382721,153.130341 443.107147,156.502518 446.626984,165.658142 
	C442.601593,166.384964 438.936584,168.717957 434.964996,164.399384 
	C433.637024,162.955368 429.416748,164.171249 426.518585,164.171249 
	C426.407959,164.873001 426.297333,165.574768 426.186737,166.276520 
	C427.995392,167.095047 429.749634,168.079056 431.624695,168.695587 
	C434.925629,169.780930 438.421265,170.346863 441.619141,171.657791 
	C448.338501,174.412354 449.990204,181.721436 445.109131,187.116852 
	C439.953491,192.815750 433.203186,192.305786 426.551208,191.007584 
	C421.304047,189.983536 417.779907,186.763199 416.279724,181.158997 
	C420.617889,180.326050 424.534668,178.048874 428.208313,183.119324 
	C429.271362,184.586563 433.622650,183.671417 436.466461,183.848450 
	C436.536224,182.456024 436.606018,181.063568 436.303345,179.481140 
z"/>
<path fill="#070707" opacity="1.000000" stroke="none" 
	d="
M234.982559,144.626358 
	C239.456863,144.626373 243.434662,144.626373 247.733246,144.626373 
	C247.733246,147.416061 247.733246,149.954178 247.733246,152.932220 
	C243.489136,152.932220 239.235779,152.932220 234.570175,152.932220 
	C234.570175,165.748611 234.570175,178.141083 234.570175,190.769852 
	C231.220520,190.769852 228.290207,190.769852 224.956116,190.769852 
	C224.956116,178.419098 224.956116,166.028275 224.956116,153.100266 
	C220.207153,153.100266 215.829910,153.100266 211.251144,153.100266 
	C211.251144,150.133423 211.251144,147.701614 211.251144,144.626343 
	C218.989319,144.626343 226.737686,144.626343 234.982559,144.626358 
z"/>
<path fill="#070707" opacity="1.000000" stroke="none" 
	d="
M470.076111,161.006165 
	C470.938660,166.703293 466.479553,164.124481 464.114532,165.422760 
	C464.114532,170.346756 463.801025,175.498947 464.319000,180.566147 
	C464.461395,181.959152 467.089142,183.098068 468.576447,184.353577 
	C469.008606,183.963821 469.440796,183.574066 469.872955,183.184326 
	C470.240509,185.398010 470.608063,187.611710 471.167267,190.979767 
	C466.931702,190.979767 462.922668,191.713806 459.427887,190.690964 
	C457.483978,190.122040 455.351471,186.727280 455.126373,184.427704 
	C454.529572,178.330383 454.923920,172.136032 454.923920,165.626984 
	C449.293732,165.165421 450.615295,161.283600 451.026886,157.490891 
	C452.150696,157.241547 453.372742,156.970428 454.865204,156.639313 
	C452.910034,149.092941 459.021942,148.265610 464.059265,145.420929 
	C464.059265,149.663040 464.059265,153.226639 464.059265,156.548431 
	C466.452545,157.911789 470.937469,155.307800 470.076111,161.006165 
z"/>
<path fill="#101010" opacity="1.000000" stroke="none" 
	d="
M383.164581,174.996368 
	C383.164581,164.708679 383.164581,154.919998 383.164581,144.865814 
	C386.483276,144.865814 389.405090,144.865814 392.566284,144.865814 
	C392.566284,160.174423 392.566284,175.254013 392.566284,190.682755 
	C389.625854,190.682755 386.719574,190.682755 383.164581,190.682755 
	C383.164581,185.706528 383.164581,180.600967 383.164581,174.996368 
z"/>
<path fill="#101010" opacity="1.000000" stroke="none" 
	d="
M410.804565,166.071823 
	C410.804565,174.519531 410.804565,182.476700 410.804565,190.729797 
	C407.549225,190.729797 404.646393,190.729797 401.451599,190.729797 
	C401.451599,179.661362 401.451599,168.619949 401.451599,157.336670 
	C404.481079,157.336670 407.255066,157.336670 410.804565,157.336670 
	C410.804565,160.074570 410.804565,162.827911 410.804565,166.071823 
z"/>
<path fill="#101010" opacity="1.000000" stroke="none" 
	d="
M407.673767,153.269562 
	C405.309967,153.270126 403.370605,153.270126 401.299561,153.270126 
	C401.299561,150.301758 401.299561,147.854462 401.299561,145.001099 
	C404.358093,145.001099 407.353455,145.001099 410.915253,145.001099 
	C409.258270,147.720856 414.045807,151.976791 407.673767,153.269562 
z"/>
<path fill="#F4F4F4" opacity="1.000000" stroke="none" 
	d="
M300.905640,390.809082 
	C298.438293,392.200653 296.383240,393.602509 294.328156,395.004364 
	C293.983032,394.837646 293.637909,394.670959 293.292786,394.504242 
	C295.111267,389.681274 296.861176,384.829132 298.879730,380.091400 
	C299.039368,379.716736 301.901733,379.785919 302.092682,380.241699 
	C304.032837,384.873383 305.678772,389.628265 307.407104,394.348663 
	C307.004730,394.588165 306.602325,394.827698 306.199921,395.067200 
	C304.572571,393.651276 302.945251,392.235352 300.905640,390.809082 
z"/>
<path fill="#F4F4F4" opacity="1.000000" stroke="none" 
	d="
M326.470795,395.028320 
	C321.401703,393.770905 321.543396,390.124237 322.206726,386.657166 
	C322.969421,382.670807 326.191223,382.350159 329.607758,382.804779 
	C330.158112,381.182465 330.683044,379.634979 331.208008,378.087494 
	C331.596802,378.130798 331.985626,378.174133 332.374451,378.217468 
	C332.374451,383.576202 332.374451,388.934967 332.374451,394.654846 
	C330.733612,394.776093 328.819061,394.917542 326.470795,395.028320 
M325.975616,392.132629 
	C329.394958,393.436890 330.304352,391.296936 330.019653,388.697357 
	C329.880951,387.431183 328.348083,386.317719 327.446320,385.135101 
	C326.573334,386.662445 325.606049,388.147369 324.887665,389.744263 
	C324.684967,390.194763 325.211243,390.973175 325.975616,392.132629 
z"/>
<path fill="#F4F4F4" opacity="1.000000" stroke="none" 
	d="
M316.791077,378.718475 
	C317.704437,379.232880 318.852539,379.996887 318.927368,380.854523 
	C319.170746,383.645111 319.022034,386.469940 319.023468,389.281586 
	C319.024292,390.919922 319.023590,392.558289 319.023590,395.481750 
	C315.392944,394.691040 311.751984,394.741028 309.340790,393.043884 
	C307.983215,392.088287 307.705780,387.772583 308.677612,385.846497 
	C309.650024,383.919403 312.784454,383.083191 314.971191,381.768799 
	C315.251953,382.096222 315.532745,382.423645 315.813507,382.751068 
	C316.053772,381.504364 316.294067,380.257660 316.791077,378.718475 
M316.153137,388.545563 
	C315.044647,387.445618 313.936157,386.345642 312.827728,385.245667 
	C312.147308,386.448883 310.951691,387.643280 310.930969,388.857727 
	C310.910126,390.078644 312.058746,391.319550 312.694885,392.551697 
	C313.847870,391.482513 315.000854,390.413330 316.153137,388.545563 
z"/>
<path fill="#F4F4F4" opacity="1.000000" stroke="none" 
	d="
M359.066437,394.976929 
	C353.010559,394.522247 352.099548,392.937408 354.872406,388.493195 
	C355.164948,388.024323 355.659180,387.135956 355.546387,387.038910 
	C352.359833,384.296722 354.816650,383.380310 357.048462,382.982422 
	C359.698547,382.510010 362.576813,382.425323 363.093323,386.214111 
	C363.316559,387.851624 363.313171,389.519043 363.506561,391.161835 
	C363.873535,394.279083 362.335754,395.285126 359.066437,394.976929 
M357.119781,385.871979 
	C357.694061,386.316132 358.268372,386.760254 358.842682,387.204376 
	C359.140472,386.764496 359.438263,386.324615 359.736053,385.884735 
	C359.046204,385.692108 358.356323,385.499481 357.119781,385.871979 
z"/>
<path fill="#F4F4F4" opacity="1.000000" stroke="none" 
	d="
M377.983978,382.320740 
	C378.167297,380.655975 378.350311,379.445190 378.533356,378.234375 
	C379.003235,378.199310 379.473083,378.164246 379.942963,378.129181 
	C380.377258,380.583008 380.811523,383.036835 381.248108,385.503510 
	C383.206726,384.529083 385.098358,383.587982 386.990021,382.646881 
	C387.171753,382.927216 387.353485,383.207550 387.535217,383.487915 
	C386.310638,384.964325 385.086029,386.440735 383.729218,388.076569 
	C385.199402,390.211273 386.581848,392.218536 387.964264,394.225830 
	C387.683777,394.596100 387.403290,394.966370 387.122803,395.336639 
	C385.360077,394.100800 383.597351,392.864960 381.493317,391.389801 
	C380.991302,392.463989 380.398224,393.733032 379.805145,395.002075 
	C379.197998,394.982635 378.590851,394.963165 377.983704,394.943695 
	C377.983704,390.887390 377.983704,386.831055 377.983978,382.320740 
z"/>
<path fill="#F4F4F4" opacity="1.000000" stroke="none" 
	d="
M375.392487,392.598938 
	C371.006836,396.345001 367.910339,395.931610 366.379913,391.442749 
	C368.467255,391.862549 370.388519,392.248932 372.309814,392.635345 
	C372.431732,392.187439 372.553680,391.739532 372.675598,391.291656 
	C371.140472,390.611389 369.233124,390.279022 368.178040,389.150116 
	C367.182648,388.085022 367.084167,386.181732 366.591187,384.647095 
	C368.659729,384.084106 370.710632,383.328064 372.813110,383.135529 
	C373.192749,383.100739 373.896576,385.349243 374.251923,386.600067 
	C374.779877,388.458557 375.130585,390.367401 375.392487,392.598938 
M369.422089,386.554382 
	C370.292938,386.595306 371.163757,386.636261 372.034607,386.677216 
	C372.011108,386.373566 371.998596,385.806366 371.962555,385.804901 
	C371.134613,385.770447 370.304077,385.797699 369.422089,386.554382 
z"/>
<path fill="#FFFFFF" opacity="1.000000" stroke="none" 
	d="
M351.561249,378.965271 
	C352.650055,379.229553 353.304047,379.487152 354.578430,379.989075 
	C344.903595,382.363434 351.427338,390.271790 347.464722,396.101227 
	C347.189575,392.646454 346.878052,390.472870 346.874268,388.298767 
	C346.867889,384.623718 347.855804,380.507111 341.522552,380.385101 
	C341.742249,379.909576 341.961945,379.434082 342.181610,378.958557 
	C345.163208,378.958557 348.144806,378.958557 351.561249,378.965271 
z"/>
<path fill="#FFFFFF" opacity="1.000000" stroke="none" 
	d="
M170.041840,254.650818 
	C171.004715,250.290573 173.721863,248.910110 177.484467,249.002014 
	C178.483643,249.026428 179.483948,249.003143 180.483734,249.003143 
	C287.460999,249.003021 394.438293,249.002747 501.415558,249.003616 
	C510.862854,249.003693 511.996460,250.143097 511.996796,259.610687 
	C511.997314,275.274017 512.011902,290.937408 511.989655,306.600708 
	C511.980530,313.019684 510.087036,314.983063 503.703217,314.984100 
	C395.226257,315.001434 286.749298,315.001526 178.272339,314.983704 
	C171.901566,314.982666 170.016968,313.015900 170.010315,306.576263 
	C169.992554,289.413269 170.010071,272.250275 170.041840,254.650818 
M231.133118,288.816315 
	C230.108246,288.266846 229.083374,287.717377 228.058502,287.167938 
	C228.206131,286.842346 228.353745,286.516785 228.501373,286.191193 
	C230.862289,286.000275 233.223190,285.809387 235.900055,285.592896 
	C235.192947,281.752289 234.414551,278.362305 230.236755,279.114594 
	C228.329559,279.458038 225.924347,281.515289 225.278076,283.338654 
	C224.292801,286.118439 224.624588,289.638245 228.284622,290.700531 
	C230.770050,291.421906 233.909729,292.031647 235.247101,287.295380 
	C233.680145,287.872253 232.748978,288.215057 231.133118,288.816315 
M199.756866,274.997040 
	C197.004059,274.997040 194.251266,274.997040 191.353424,274.997040 
	C191.353424,280.627716 191.353424,285.522125 191.353424,290.409424 
	C194.853836,290.409424 198.025787,290.409424 201.665634,290.409424 
	C199.615646,287.234894 192.393402,291.624939 194.375229,284.475159 
	C196.646957,284.080505 198.675735,283.728058 201.935181,283.161774 
	C200.130280,282.322540 199.679886,282.150696 199.266403,281.914368 
	C197.508377,280.909607 195.761307,279.885681 194.010239,278.868774 
	C195.678268,278.283600 197.404846,277.819672 198.986755,277.056091 
	C199.660324,276.730957 200.031311,275.778961 199.756866,274.997040 
M279.027405,288.396210 
	C281.301056,293.352600 285.214966,290.112457 288.967041,290.797333 
	C288.091522,286.383789 291.385437,281.338898 285.530609,279.206024 
	C283.965424,278.635803 281.681854,280.037476 279.728058,280.533875 
	C279.884003,280.980804 280.039948,281.427704 280.195892,281.874634 
	C281.991577,281.874634 283.787231,281.874634 285.606384,281.874634 
	C283.140350,283.988922 281.048615,285.782318 279.027405,288.396210 
M258.688721,283.337921 
	C257.901337,283.538757 256.925781,283.514343 256.363251,283.984314 
	C254.909164,285.199097 253.637360,286.632111 252.292755,287.977966 
	C253.952011,288.994141 255.507782,290.320526 257.305908,290.920563 
	C258.563385,291.340179 260.152283,290.766754 262.294098,290.573669 
	C260.797333,286.536682 265.143921,281.250214 258.713776,279.075867 
	C256.421295,278.300690 253.743042,278.746857 253.142151,281.351501 
	C255.587952,281.897919 257.286743,282.277405 258.688721,283.337921 
M306.080902,287.456726 
	C306.994110,287.824219 307.987671,288.066528 308.801514,288.588837 
	C309.988373,289.350555 311.045959,290.313660 312.158661,291.190887 
	C312.491821,290.863129 312.824982,290.535339 313.158142,290.207581 
	C311.789215,288.111115 310.420288,286.014679 309.104218,283.999115 
	C310.485748,282.378571 311.648407,281.014740 312.811096,279.650879 
	C312.506378,279.329529 312.201660,279.008179 311.896942,278.686829 
	C310.134094,279.895233 308.371246,281.103638 306.233948,282.568726 
	C306.059906,279.629883 305.905701,277.025909 305.751495,274.421906 
	C305.200836,274.455353 304.650208,274.488800 304.099548,274.522247 
	C304.099548,279.949677 304.099548,285.377136 304.099548,290.804565 
	C304.448425,290.864014 304.797272,290.923462 305.146149,290.982910 
	C305.440308,290.042786 305.734467,289.102692 306.080902,287.456726 
M204.228149,280.911194 
	C204.364136,284.237152 204.500122,287.563080 204.636124,290.889038 
	C205.296432,290.868469 205.956741,290.847900 206.617050,290.827332 
	C206.743271,288.981934 206.576843,287.049744 207.090149,285.319153 
	C207.486633,283.982361 208.735245,282.898315 209.605011,281.701904 
	C210.401321,282.896301 211.522476,283.993866 211.914627,285.308777 
	C212.447067,287.094055 212.421661,289.045654 212.635498,290.925934 
	C213.423752,290.833740 214.211990,290.741516 215.000229,290.649323 
	C214.520569,287.171448 214.992050,283.023834 213.195862,280.473083 
	C212.158691,279.000183 207.461685,280.104492 204.228149,280.911194 
M291.998566,283.180206 
	C293.971558,284.774994 295.944519,286.369781 297.917511,287.964600 
	C297.760132,288.275818 297.602753,288.587036 297.445374,288.898285 
	C295.746674,288.468109 294.047943,288.037964 292.349243,287.607819 
	C292.130035,288.102844 291.910828,288.597839 291.691620,289.092865 
	C293.153320,289.747070 294.632751,290.953033 296.071991,290.906891 
	C297.645294,290.856506 300.066223,290.039795 300.581421,288.876648 
	C302.876556,283.694763 296.226044,284.894867 294.554962,281.064972 
	C296.981812,281.536804 298.645325,281.860229 300.308838,282.183655 
	C300.510468,281.698303 300.712097,281.212952 300.913696,280.727631 
	C299.406830,280.120514 297.717926,278.774536 296.438324,279.089844 
	C294.768463,279.501312 293.422821,281.228607 291.998566,283.180206 
M219.080902,290.218048 
	C220.240631,290.474609 221.400360,290.731171 222.236053,290.916046 
	C221.773651,287.765869 220.181168,284.395081 221.247208,282.628906 
	C223.493500,278.907318 221.051010,277.885223 219.061188,275.532959 
	C215.772629,280.542480 218.696274,285.125916 219.080902,290.218048 
M272.100677,288.028656 
	C273.358246,289.140076 274.615814,290.251526 276.357727,291.791016 
	C275.768616,287.725891 274.174408,284.332184 275.251648,282.596252 
	C277.590546,278.827332 275.043121,277.863800 272.063538,276.205841 
	C272.063538,279.869965 272.063538,283.534058 272.100677,288.028656 
M239.315964,290.829285 
	C239.783478,290.067719 240.446014,289.362152 240.683685,288.534576 
	C241.564911,285.465851 242.306152,282.356934 243.159317,279.031830 
	C242.261810,279.074188 240.255707,279.168915 237.754715,279.286987 
	C238.030945,283.449524 238.268433,287.028595 239.315964,290.829285 
z"/>
<path fill="#F4F4F4" opacity="1.000000" stroke="none" 
	d="
M297.749817,165.683533 
	C303.401642,162.757309 307.419800,164.225525 308.334351,169.942902 
	C308.875793,173.327652 308.355957,177.201477 307.147003,180.416809 
	C306.510223,182.110306 303.362732,183.777054 301.359650,183.764328 
	C299.592194,183.753098 296.999054,181.755264 296.242889,180.000275 
	C294.219086,175.303253 294.038879,170.368164 297.749817,165.683533 
z"/>
<path fill="#F4F4F4" opacity="1.000000" stroke="none" 
	d="
M259.153442,166.141296 
	C262.378815,163.764603 265.349335,163.813248 268.097626,166.069794 
	C271.814575,169.121689 272.034790,173.521759 270.759918,177.442856 
	C269.968475,179.877106 267.452057,182.412445 265.068512,183.511551 
	C261.518707,185.148407 256.611969,181.634003 256.420349,177.017105 
	C256.274597,173.504883 257.969147,169.916275 259.153442,166.141296 
z"/>
<path fill="#F4F4F4" opacity="1.000000" stroke="none" 
	d="
M334.013397,174.839569 
	C334.467896,172.361511 334.674652,170.181564 335.506226,168.274002 
	C336.051422,167.023392 337.338776,165.877365 338.574615,165.188095 
	C342.200531,163.165756 346.446747,164.940796 348.365875,169.062088 
	C350.719910,174.117355 348.935730,180.980667 344.717529,183.096252 
	C341.016449,184.952454 336.904449,183.303879 334.990479,179.061356 
	C334.460602,177.886780 334.339600,176.527740 334.013397,174.839569 
z"/>
<path fill="#51ACE8" opacity="1.000000" stroke="none" 
	d="
M325.689392,391.866913 
	C325.211243,390.973175 324.684967,390.194763 324.887665,389.744263 
	C325.606049,388.147369 326.573334,386.662445 327.446320,385.135101 
	C328.348083,386.317719 329.880951,387.431183 330.019653,388.697357 
	C330.304352,391.296936 329.394958,393.436890 325.689392,391.866913 
z"/>
<path fill="#51ACE8" opacity="1.000000" stroke="none" 
	d="
M316.153503,388.944855 
	C315.000854,390.413330 313.847870,391.482513 312.694885,392.551697 
	C312.058746,391.319550 310.910126,390.078644 310.930969,388.857727 
	C310.951691,387.643280 312.147308,386.448883 312.827698,385.245667 
	C313.936157,386.345642 315.044647,387.445618 316.153503,388.944855 
z"/>
<path fill="#51ACE8" opacity="1.000000" stroke="none" 
	d="
M357.393127,385.589417 
	C358.356323,385.499481 359.046204,385.692108 359.736053,385.884735 
	C359.438263,386.324615 359.140472,386.764496 358.842682,387.204376 
	C358.268372,386.760254 357.694061,386.316132 357.393127,385.589417 
z"/>
<path fill="#51ACE8" opacity="1.000000" stroke="none" 
	d="
M369.448059,386.183899 
	C370.304077,385.797699 371.134613,385.770447 371.962555,385.804901 
	C371.998596,385.806366 372.011108,386.373566 372.034607,386.677216 
	C371.163757,386.636261 370.292938,386.595306 369.448059,386.183899 
z"/>
<path fill="#B1B1B1" opacity="1.000000" stroke="none" 
	d="
M231.475464,288.687073 
	C232.748978,288.215057 233.680145,287.872253 235.247101,287.295380 
	C233.909729,292.031647 230.770050,291.421906 228.284622,290.700531 
	C224.624588,289.638245 224.292801,286.118439 225.278076,283.338654 
	C225.924347,281.515289 228.329559,279.458038 230.236755,279.114594 
	C234.414551,278.362305 235.192947,281.752289 235.900055,285.592896 
	C233.223190,285.809387 230.862289,286.000275 228.501373,286.191193 
	C228.353745,286.516785 228.206131,286.842346 228.058502,287.167938 
	C229.083374,287.717377 230.108246,288.266846 231.475464,288.687073 
z"/>
<path fill="#B1B1B1" opacity="1.000000" stroke="none" 
	d="
M200.148346,275.054443 
	C200.031311,275.778961 199.660324,276.730957 198.986755,277.056091 
	C197.404846,277.819672 195.678268,278.283600 194.010239,278.868774 
	C195.761307,279.885681 197.508377,280.909607 199.266403,281.914368 
	C199.679886,282.150696 200.130280,282.322540 201.935181,283.161774 
	C198.675735,283.728058 196.646957,284.080505 194.375229,284.475159 
	C192.393402,291.624939 199.615646,287.234894 201.665634,290.409424 
	C198.025787,290.409424 194.853836,290.409424 191.353424,290.409424 
	C191.353424,285.522125 191.353424,280.627716 191.353424,274.997040 
	C194.251266,274.997040 197.004059,274.997040 200.148346,275.054443 
z"/>
<path fill="#B1B1B1" opacity="1.000000" stroke="none" 
	d="
M278.992126,287.985962 
	C281.048615,285.782318 283.140350,283.988922 285.606384,281.874634 
	C283.787231,281.874634 281.991577,281.874634 280.195892,281.874634 
	C280.039948,281.427704 279.884003,280.980804 279.728058,280.533875 
	C281.681854,280.037476 283.965424,278.635803 285.530609,279.206024 
	C291.385437,281.338898 288.091522,286.383789 288.967041,290.797333 
	C285.214966,290.112457 281.301056,293.352600 278.992126,287.985962 
z"/>
<path fill="#B1B1B1" opacity="1.000000" stroke="none" 
	d="
M258.837097,282.997437 
	C257.286743,282.277405 255.587952,281.897919 253.142151,281.351501 
	C253.743042,278.746857 256.421295,278.300690 258.713776,279.075867 
	C265.143921,281.250214 260.797333,286.536682 262.294098,290.573669 
	C260.152283,290.766754 258.563385,291.340179 257.305908,290.920563 
	C255.507782,290.320526 253.952011,288.994141 252.292755,287.977966 
	C253.637360,286.632111 254.909164,285.199097 256.363251,283.984314 
	C256.925781,283.514343 257.901337,283.538757 258.837097,282.997437 
z"/>
<path fill="#B1B1B1" opacity="1.000000" stroke="none" 
	d="
M306.054749,287.809631 
	C305.734467,289.102692 305.440308,290.042786 305.146149,290.982910 
	C304.797272,290.923462 304.448425,290.864014 304.099548,290.804565 
	C304.099548,285.377136 304.099548,279.949677 304.099548,274.522247 
	C304.650208,274.488800 305.200836,274.455353 305.751495,274.421906 
	C305.905701,277.025909 306.059906,279.629883 306.233948,282.568726 
	C308.371246,281.103638 310.134094,279.895233 311.896942,278.686829 
	C312.201660,279.008179 312.506378,279.329529 312.811096,279.650879 
	C311.648407,281.014740 310.485748,282.378571 309.104218,283.999115 
	C310.420288,286.014679 311.789215,288.111115 313.158142,290.207581 
	C312.824982,290.535339 312.491821,290.863129 312.158661,291.190887 
	C311.045959,290.313660 309.988373,289.350555 308.801514,288.588837 
	C307.987671,288.066528 306.994110,287.824219 306.054749,287.809631 
z"/>
<path fill="#B1B1B1" opacity="1.000000" stroke="none" 
	d="
M204.320023,280.480042 
	C207.461685,280.104492 212.158691,279.000183 213.195862,280.473083 
	C214.992050,283.023834 214.520569,287.171448 215.000229,290.649323 
	C214.211990,290.741516 213.423752,290.833740 212.635498,290.925934 
	C212.421661,289.045654 212.447067,287.094055 211.914627,285.308777 
	C211.522476,283.993866 210.401321,282.896301 209.605011,281.701904 
	C208.735245,282.898315 207.486633,283.982361 207.090149,285.319153 
	C206.576843,287.049744 206.743271,288.981934 206.617050,290.827332 
	C205.956741,290.847900 205.296432,290.868469 204.636124,290.889038 
	C204.500122,287.563080 204.364136,284.237152 204.320023,280.480042 
z"/>
<path fill="#B1B1B1" opacity="1.000000" stroke="none" 
	d="
M291.968140,282.784973 
	C293.422821,281.228607 294.768463,279.501312 296.438324,279.089844 
	C297.717926,278.774536 299.406830,280.120514 300.913696,280.727631 
	C300.712097,281.212952 300.510468,281.698303 300.308838,282.183655 
	C298.645325,281.860229 296.981812,281.536804 294.554962,281.064972 
	C296.226044,284.894867 302.876556,283.694763 300.581421,288.876648 
	C300.066223,290.039795 297.645294,290.856506 296.071991,290.906891 
	C294.632751,290.953033 293.153320,289.747070 291.691620,289.092865 
	C291.910828,288.597839 292.130035,288.102844 292.349243,287.607819 
	C294.047943,288.037964 295.746674,288.468109 297.445374,288.898285 
	C297.602753,288.587036 297.760132,288.275818 297.917511,287.964600 
	C295.944519,286.369781 293.971558,284.774994 291.968140,282.784973 
z"/>
<path fill="#B1B1B1" opacity="1.000000" stroke="none" 
	d="
M218.820892,289.904602 
	C218.696274,285.125916 215.772629,280.542480 219.061188,275.532959 
	C221.051010,277.885223 223.493500,278.907318 221.247208,282.628906 
	C220.181168,284.395081 221.773651,287.765869 222.236053,290.916046 
	C221.400360,290.731171 220.240631,290.474609 218.820892,289.904602 
z"/>
<path fill="#B1B1B1" opacity="1.000000" stroke="none" 
	d="
M272.082092,287.613403 
	C272.063538,283.534058 272.063538,279.869965 272.063538,276.205841 
	C275.043121,277.863800 277.590546,278.827332 275.251648,282.596252 
	C274.174408,284.332184 275.768616,287.725891 276.357727,291.791016 
	C274.615814,290.251526 273.358246,289.140076 272.082092,287.613403 
z"/>
<path fill="#B1B1B1" opacity="1.000000" stroke="none" 
	d="
M238.910950,290.718445 
	C238.268433,287.028595 238.030945,283.449524 237.754715,279.286987 
	C240.255707,279.168915 242.261810,279.074188 243.159317,279.031830 
	C242.306152,282.356934 241.564911,285.465851 240.683685,288.534576 
	C240.446014,289.362152 239.783478,290.067719 238.910950,290.718445 
z"/>
</svg>